<svg width="210" height="47" viewBox="0 0 210 47" fill="none" xmlns="http://www.w3.org/2000/svg">
<path d="M27.9297 11.7188L24.6484 21.1133C22.5 18.2096 20.0326 16.7578 17.2461 16.7578C15.6966 16.7578 14.9219 17.3438 14.9219 18.5156C14.9219 18.8802 15.1628 19.2513 15.6445 19.6289C16.1393 20.0065 17.4219 20.599 19.4922 21.4062C21.7708 22.3047 23.5221 23.125 24.7461 23.8672C25.9831 24.5964 26.9076 25.5339 27.5195 26.6797C28.1315 27.8255 28.4375 29.1602 28.4375 30.6836C28.4375 33.8737 27.2266 36.3086 24.8047 37.9883C22.3828 39.6549 18.8216 40.4883 14.1211 40.4883C8.84766 40.4883 4.30339 39.7396 0.488281 38.2422L3.71094 28.2812C4.64844 29.7396 5.80729 30.8984 7.1875 31.7578C8.58073 32.6172 9.91536 33.0469 11.1914 33.0469C11.8164 33.0469 12.3372 32.8841 12.7539 32.5586C13.1836 32.2331 13.3984 31.8359 13.3984 31.3672C13.3984 30.9245 13.1901 30.5013 12.7734 30.0977C12.3698 29.694 11.2891 29.1341 9.53125 28.418C7.94271 27.7799 6.6276 27.1615 5.58594 26.5625C4.54427 25.9505 3.63932 25.0846 2.87109 23.9648C2.10286 22.8451 1.71875 21.4323 1.71875 19.7266C1.71875 16.4193 2.92318 13.9258 5.33203 12.2461C7.74089 10.5664 11.2956 9.72656 15.9961 9.72656C20.293 9.72656 24.2708 10.3906 27.9297 11.7188ZM53.2617 17.4023V27.7148C50.8659 26.569 48.6654 25.9961 46.6602 25.9961C45.5013 25.9961 44.5964 26.1849 43.9453 26.5625C43.3073 26.9271 42.9883 27.4349 42.9883 28.0859C42.9883 29.5964 44.388 30.3516 47.1875 30.3516C49.5833 30.3516 51.6081 29.9414 53.2617 29.1211V39.3164C50.9049 40.0065 48.3854 40.3516 45.7031 40.3516C40.9896 40.3516 37.3438 39.2188 34.7656 36.9531C32.1875 34.6875 30.8984 31.8099 30.8984 28.3203C30.8984 24.8307 32.1289 21.9076 34.5898 19.5508C37.0508 17.181 40.3516 15.9961 44.4922 15.9961C47.3698 15.9961 50.293 16.4648 53.2617 17.4023ZM69.7461 21.6406C71.2826 18.0729 73.5091 16.2891 76.4258 16.2891C78.0534 16.2891 79.3945 16.8229 80.4492 17.8906C81.5039 18.9583 82.0312 20.3125 82.0312 21.9531C82.0312 23.6719 81.5104 25.0651 80.4688 26.1328C79.4401 27.1875 78.0924 27.7148 76.4258 27.7148C74.5247 27.7148 72.8971 26.9987 71.543 25.5664C70.3451 26.582 69.7461 28.4701 69.7461 31.2305V40H57.6758V16.4844H69.7461V21.6406ZM92.207 16.5625C91.2695 16.5625 90.4622 16.224 89.7852 15.5469C89.1081 14.8698 88.7695 14.0625 88.7695 13.125C88.7695 12.1875 89.1081 11.3867 89.7852 10.7227C90.4622 10.0586 91.2695 9.72656 92.207 9.72656C93.1445 9.72656 93.9453 10.0586 94.6094 10.7227C95.2734 11.3867 95.6055 12.1875 95.6055 13.125C95.6055 14.0625 95.2734 14.8698 94.6094 15.5469C93.9453 16.224 93.1445 16.5625 92.207 16.5625ZM95.6836 16.4844V40H83.6133V16.4844C85.2018 17.3828 87.2656 17.832 89.8047 17.832C92.1615 17.832 94.1211 17.3828 95.6836 16.4844ZM112.207 10.1953V17.207C113.73 16.5951 115.254 16.2891 116.777 16.2891C120.098 16.2891 122.858 17.3958 125.059 19.6094C127.259 21.8229 128.359 24.6094 128.359 27.9688C128.359 31.3542 127.207 34.2057 124.902 36.5234C122.598 38.8411 119.355 40 115.176 40H100.137V10.1953H112.207ZM112.207 31.4453H112.48C113.496 31.4453 114.284 31.3932 114.844 31.2891C115.417 31.1719 115.879 30.8984 116.23 30.4688C116.595 30.026 116.777 29.3359 116.777 28.3984C116.777 27.526 116.543 26.8359 116.074 26.3281C115.605 25.8203 114.967 25.5664 114.16 25.5664C113.522 25.5664 112.871 25.7487 112.207 26.1133V31.4453ZM143.262 10.1953V17.207C144.785 16.5951 146.309 16.2891 147.832 16.2891C151.152 16.2891 153.913 17.3958 156.113 19.6094C158.314 21.8229 159.414 24.6094 159.414 27.9688C159.414 31.3542 158.262 34.2057 155.957 36.5234C153.652 38.8411 150.41 40 146.23 40H131.191V10.1953H143.262ZM143.262 31.4453H143.535C144.551 31.4453 145.339 31.3932 145.898 31.2891C146.471 31.1719 146.934 30.8984 147.285 30.4688C147.65 30.026 147.832 29.3359 147.832 28.3984C147.832 27.526 147.598 26.8359 147.129 26.3281C146.66 25.8203 146.022 25.5664 145.215 25.5664C144.577 25.5664 143.926 25.7487 143.262 26.1133V31.4453ZM174.434 40H162.363V10.1953H174.434V40ZM193.477 46.6016H180.352L185.195 35.1562L176.914 16.4844H188.926L191.758 22.7539L194.473 16.4844H206.191L193.477 46.6016Z" fill="#1A1A1A"/>
</svg>
