<svg width="28" height="29" viewBox="0 0 28 29" fill="none" xmlns="http://www.w3.org/2000/svg">
<path d="M14 0.5C6.26613 0.5 0 6.76613 0 14.5C0 22.2339 6.26613 28.5 14 28.5C21.7339 28.5 28 22.2339 28 14.5C28 6.76613 21.7339 0.5 14 0.5ZM21 15.629H15.8065V20.8226C15.8065 21.1952 15.5016 21.5 15.129 21.5H13.7742C13.4016 21.5 13.0968 21.1952 13.0968 20.8226V15.629H7.90323C7.53064 15.629 7.22581 15.3242 7.22581 14.9516V13.5968C7.22581 13.2242 7.53064 12.9194 7.90323 12.9194H13.0968V7.72581C13.0968 7.35323 13.4016 7.04839 13.7742 7.04839H15.129C15.5016 7.04839 15.8065 7.35323 15.8065 7.72581V12.9194H21C21.3726 12.9194 21.6774 13.2242 21.6774 13.5968V14.9516C21.6774 15.3242 21.3726 15.629 21 15.629Z" fill="black"/>
</svg>
