<svg width="32" height="32" viewBox="0 0 32 32" fill="none" xmlns="http://www.w3.org/2000/svg">
<path d="M25.4125 22.5875C26.1938 23.3688 26.1938 24.6376 25.4125 25.4188C24.6313 26.2001 23.3625 26.2001 22.5813 25.4188L16 18.8313L9.41255 25.4125C8.6313 26.1938 7.36255 26.1938 6.5813 25.4125C5.80005 24.6313 5.80005 23.3625 6.5813 22.5813L13.1688 16L6.58755 9.41255C5.8063 8.6313 5.8063 7.36255 6.58755 6.5813C7.3688 5.80005 8.63755 5.80005 9.4188 6.5813L16 13.1688L22.5875 6.58755C23.3688 5.8063 24.6376 5.8063 25.4188 6.58755C26.2001 7.3688 26.2001 8.63755 25.4188 9.4188L18.8313 16L25.4125 22.5875Z" fill="black"/>
</svg>
